<svg width="653" height="20" viewBox="0 0 653 20" fill="none" xmlns="http://www.w3.org/2000/svg">
<path d="M8.032 6.524C7.76533 6.22533 7.35467 5.95333 6.8 5.708C6.24533 5.46267 5.62667 5.34 4.944 5.34C4.06933 5.34 3.424 5.50533 3.008 5.836C2.592 6.16667 2.384 6.62 2.384 7.196C2.384 7.60133 2.49067 7.92133 2.704 8.156C2.91733 8.39067 3.24267 8.58267 3.68 8.732C4.128 8.88133 4.69333 9.036 5.376 9.196C6.16533 9.36667 6.848 9.57467 7.424 9.82C8 10.0653 8.44267 10.396 8.752 10.812C9.06133 11.2173 9.216 11.7613 9.216 12.444C9.216 13.1693 9.03467 13.7667 8.672 14.236C8.30933 14.7053 7.81333 15.052 7.184 15.276C6.56533 15.5 5.86667 15.612 5.088 15.612C3.31733 15.612 1.776 15.0787 0.464 14.012L1.152 12.796C1.38667 13.0307 1.70133 13.2653 2.096 13.5C2.50133 13.7347 2.96 13.932 3.472 14.092C3.99467 14.2413 4.544 14.316 5.12 14.316C5.93067 14.316 6.56 14.172 7.008 13.884C7.456 13.5853 7.68 13.1533 7.68 12.588C7.68 12.1613 7.552 11.82 7.296 11.564C7.05067 11.308 6.68267 11.0947 6.192 10.924C5.70133 10.7533 5.104 10.5827 4.4 10.412C3.632 10.22 2.98667 10.012 2.464 9.788C1.94133 9.55333 1.54667 9.24933 1.28 8.876C1.024 8.50267 0.896 8.01733 0.896 7.42C0.896 6.69467 1.072 6.08133 1.424 5.58C1.776 5.07867 2.26133 4.7 2.88 4.444C3.49867 4.188 4.19733 4.06 4.976 4.06C5.73333 4.06 6.42133 4.17733 7.04 4.412C7.66933 4.64667 8.224 4.96133 8.704 5.356L8.032 6.524ZM14.534 15.66C13.702 15.66 12.966 15.4627 12.326 15.068C11.6967 14.6627 11.206 14.1347 10.854 13.484C10.502 12.8227 10.326 12.108 10.326 11.34C10.326 10.5613 10.502 9.84667 10.854 9.196C11.2167 8.53467 11.7127 8.00667 12.342 7.612C12.982 7.20667 13.7127 7.004 14.534 7.004C15.366 7.004 16.0967 7.20667 16.726 7.612C17.366 8.00667 17.862 8.53467 18.214 9.196C18.5767 9.84667 18.758 10.5613 18.758 11.34C18.758 12.108 18.5767 12.8227 18.214 13.484C17.862 14.1347 17.3713 14.6627 16.742 15.068C16.1127 15.4627 15.3767 15.66 14.534 15.66ZM11.766 11.356C11.766 11.932 11.8887 12.4547 12.134 12.924C12.39 13.3933 12.726 13.7667 13.142 14.044C13.558 14.3107 14.022 14.444 14.534 14.444C15.046 14.444 15.51 14.3053 15.926 14.028C16.3527 13.7507 16.6887 13.3773 16.934 12.908C17.19 12.428 17.318 11.9 17.318 11.324C17.318 10.748 17.19 10.2253 16.934 9.756C16.6887 9.28667 16.3527 8.91333 15.926 8.636C15.51 8.35867 15.046 8.22 14.534 8.22C14.022 8.22 13.558 8.364 13.142 8.652C12.726 8.92933 12.39 9.30267 12.134 9.772C11.8887 10.2413 11.766 10.7693 11.766 11.356ZM24.7521 15.66C24.1015 15.66 23.5095 15.5 22.9761 15.18C22.4428 14.86 22.0215 14.444 21.7121 13.932V15.5H20.4641V3.82H21.8721V8.812C22.2241 8.268 22.6561 7.83067 23.1681 7.5C23.6801 7.16933 24.2775 7.004 24.9601 7.004C25.5361 7.004 26.0535 7.12667 26.5121 7.372C26.9708 7.60667 27.3601 7.932 27.6801 8.348C28.0108 8.75333 28.2615 9.21733 28.4321 9.74C28.6135 10.252 28.7041 10.7907 28.7041 11.356C28.7041 12.1347 28.5281 12.8547 28.1761 13.516C27.8348 14.1667 27.3655 14.6893 26.7681 15.084C26.1708 15.468 25.4988 15.66 24.7521 15.66ZM24.4001 14.444C24.9655 14.444 25.4615 14.3 25.8881 14.012C26.3148 13.7133 26.6508 13.3293 26.8961 12.86C27.1415 12.3907 27.2641 11.8893 27.2641 11.356C27.2641 10.812 27.1468 10.3 26.9121 9.82C26.6881 9.34 26.3681 8.956 25.9521 8.668C25.5468 8.36933 25.0721 8.22 24.5281 8.22C23.9308 8.22 23.3975 8.412 22.9281 8.796C22.4695 9.18 22.1175 9.63867 21.8721 10.172V12.588C21.9468 12.94 22.1175 13.26 22.3841 13.548C22.6615 13.8253 22.9815 14.044 23.3441 14.204C23.7175 14.364 24.0695 14.444 24.4001 14.444ZM34.8489 8.38C34.1449 8.39067 33.5209 8.572 32.9769 8.924C32.4435 9.26533 32.0649 9.74 31.8409 10.348V15.5H30.4329V7.148H31.7449V9.084C32.0329 8.508 32.4115 8.044 32.8809 7.692C33.3609 7.32933 33.8622 7.12667 34.3849 7.084C34.4915 7.084 34.5822 7.084 34.6569 7.084C34.7315 7.084 34.7955 7.08933 34.8489 7.1V8.38ZM39.7539 15.66C38.9219 15.66 38.1859 15.4627 37.5459 15.068C36.9059 14.6733 36.4045 14.1453 36.0419 13.484C35.6792 12.8227 35.4979 12.1027 35.4979 11.324C35.4979 10.5347 35.6792 9.81467 36.0419 9.164C36.4045 8.51333 36.9059 7.99067 37.5459 7.596C38.1965 7.20133 38.9379 7.004 39.7699 7.004C40.6125 7.004 41.3432 7.20667 41.9619 7.612C42.5912 8.00667 43.0765 8.52933 43.4179 9.18C43.7699 9.82 43.9459 10.5133 43.9459 11.26C43.9459 11.4947 43.9352 11.676 43.9139 11.804H36.9859C37.0285 12.348 37.1779 12.8333 37.4339 13.26C37.7005 13.676 38.0419 14.0067 38.4579 14.252C38.8739 14.4867 39.3219 14.604 39.8019 14.604C40.3139 14.604 40.7939 14.476 41.2419 14.22C41.7005 13.964 42.0152 13.628 42.1859 13.212L43.4019 13.548C43.1352 14.1667 42.6712 14.6733 42.0099 15.068C41.3485 15.4627 40.5965 15.66 39.7539 15.66ZM36.9379 10.828H42.6339C42.5912 10.284 42.4365 9.804 42.1699 9.388C41.9032 8.972 41.5619 8.64667 41.1459 8.412C40.7299 8.17733 40.2712 8.06 39.7699 8.06C39.2792 8.06 38.8259 8.17733 38.4099 8.412C37.9939 8.64667 37.6525 8.972 37.3859 9.388C37.1299 9.804 36.9805 10.284 36.9379 10.828ZM62.1499 15.5H60.7419V10.828C60.7419 9.95333 60.5979 9.308 60.3099 8.892C60.0325 8.476 59.6165 8.268 59.0619 8.268C58.4965 8.268 57.9845 8.476 57.5259 8.892C57.0672 9.29733 56.7419 9.82533 56.5499 10.476V15.5H55.1419V10.828C55.1419 9.94267 55.0032 9.29733 54.7259 8.892C54.4485 8.476 54.0325 8.268 53.4779 8.268C52.9232 8.268 52.4112 8.47067 51.9419 8.876C51.4832 9.27067 51.1579 9.79867 50.9659 10.46V15.5H49.5579V7.148H50.8379V8.94C51.1792 8.32133 51.6219 7.84667 52.1659 7.516C52.7099 7.17467 53.3232 7.004 54.0059 7.004C54.6992 7.004 55.2539 7.196 55.6699 7.58C56.0859 7.95333 56.3419 8.43867 56.4379 9.036C57.1845 7.68133 58.2459 7.004 59.6219 7.004C60.2619 7.004 60.7632 7.15867 61.1259 7.468C61.4992 7.76667 61.7605 8.18267 61.9099 8.716C62.0699 9.23867 62.1499 9.836 62.1499 10.508V15.5ZM64.3391 5.58V3.82H65.7471V5.58H64.3391ZM64.3391 15.5V7.148H65.7471V15.5H64.3391Z" fill="#464646"/>
<path d="M107.032 6.524C106.904 6.37467 106.733 6.23067 106.52 6.092C106.307 5.95333 106.067 5.83067 105.8 5.724C105.533 5.60667 105.24 5.516 104.92 5.452C104.611 5.37733 104.285 5.34 103.944 5.34C103.059 5.34 102.408 5.50533 101.992 5.836C101.587 6.16667 101.384 6.62 101.384 7.196C101.384 7.50533 101.443 7.76133 101.56 7.964C101.677 8.16667 101.859 8.34267 102.104 8.492C102.36 8.63067 102.675 8.75333 103.048 8.86C103.421 8.96667 103.864 9.07867 104.376 9.196C104.963 9.324 105.491 9.47333 105.96 9.644C106.44 9.804 106.845 10.0067 107.176 10.252C107.517 10.4973 107.773 10.796 107.944 11.148C108.125 11.5 108.216 11.932 108.216 12.444C108.216 12.988 108.109 13.4627 107.896 13.868C107.683 14.2627 107.389 14.5933 107.016 14.86C106.653 15.116 106.221 15.308 105.72 15.436C105.219 15.5533 104.675 15.612 104.088 15.612C103.213 15.612 102.381 15.4787 101.592 15.212C100.813 14.9347 100.104 14.5347 99.464 14.012L100.152 12.796C100.323 12.9773 100.541 13.1587 100.808 13.34C101.085 13.5213 101.395 13.6867 101.736 13.836C102.088 13.9747 102.461 14.092 102.856 14.188C103.261 14.2733 103.683 14.316 104.12 14.316C104.931 14.316 105.56 14.172 106.008 13.884C106.456 13.596 106.68 13.164 106.68 12.588C106.68 12.268 106.605 12.0013 106.456 11.788C106.317 11.564 106.109 11.372 105.832 11.212C105.555 11.052 105.208 10.9133 104.792 10.796C104.387 10.668 103.923 10.54 103.4 10.412C102.824 10.2733 102.317 10.124 101.88 9.964C101.443 9.804 101.075 9.612 100.776 9.388C100.488 9.164 100.269 8.892 100.12 8.572C99.9707 8.252 99.896 7.868 99.896 7.42C99.896 6.876 99.9973 6.396 100.2 5.98C100.403 5.564 100.685 5.212 101.048 4.924C101.411 4.636 101.843 4.42267 102.344 4.284C102.845 4.13467 103.389 4.06 103.976 4.06C104.744 4.06 105.437 4.17733 106.056 4.412C106.675 4.64667 107.224 4.96133 107.704 5.356L107.032 6.524ZM115.774 15.5L112.894 11.42L111.294 12.924V15.5H109.886V3.82H111.294V11.5L115.582 7.164H117.134L113.806 10.62L117.294 15.5H115.774ZM118.511 15.5V7.148H119.919V15.5H118.511ZM118.511 5.58V3.82H119.919V5.58H118.511ZM122.231 3.82H123.639V13.34C123.639 13.6493 123.719 13.8947 123.879 14.076C124.049 14.2467 124.284 14.332 124.583 14.332C124.7 14.332 124.839 14.316 124.999 14.284C125.159 14.2413 125.308 14.1933 125.447 14.14L125.671 15.276C125.436 15.372 125.159 15.452 124.839 15.516C124.519 15.58 124.236 15.612 123.991 15.612C123.447 15.612 123.015 15.4573 122.695 15.148C122.385 14.8387 122.231 14.4067 122.231 13.852V3.82ZM126.809 3.82H128.217V13.34C128.217 13.6493 128.297 13.8947 128.457 14.076C128.627 14.2467 128.862 14.332 129.161 14.332C129.278 14.332 129.417 14.316 129.577 14.284C129.737 14.2413 129.886 14.1933 130.025 14.14L130.249 15.276C130.014 15.372 129.737 15.452 129.417 15.516C129.097 15.58 128.814 15.612 128.569 15.612C128.025 15.612 127.593 15.4573 127.273 15.148C126.963 14.8387 126.809 14.4067 126.809 13.852V3.82ZM134.283 15.66C133.611 15.66 132.949 15.5587 132.299 15.356C131.648 15.1427 131.088 14.8387 130.619 14.444L131.227 13.5C131.717 13.8733 132.208 14.156 132.699 14.348C133.189 14.5293 133.707 14.62 134.251 14.62C134.859 14.62 135.339 14.5027 135.691 14.268C136.053 14.0227 136.235 13.6813 136.235 13.244C136.235 13.0413 136.187 12.8707 136.091 12.732C135.995 12.5827 135.851 12.4547 135.659 12.348C135.467 12.2413 135.221 12.1453 134.923 12.06C134.624 11.9747 134.277 11.884 133.883 11.788C133.381 11.66 132.949 11.5373 132.587 11.42C132.224 11.3027 131.925 11.164 131.691 11.004C131.456 10.844 131.285 10.652 131.179 10.428C131.072 10.204 131.019 9.92667 131.019 9.596C131.019 9.18 131.099 8.812 131.259 8.492C131.429 8.16133 131.659 7.88933 131.947 7.676C132.235 7.452 132.571 7.28667 132.955 7.18C133.349 7.06267 133.771 7.004 134.219 7.004C134.848 7.004 135.435 7.10533 135.979 7.308C136.523 7.51067 136.981 7.77733 137.355 8.108L136.715 8.956C136.363 8.64667 135.968 8.41733 135.531 8.268C135.093 8.108 134.645 8.028 134.187 8.028C133.675 8.028 133.237 8.14 132.875 8.364C132.523 8.57733 132.347 8.924 132.347 9.404C132.347 9.596 132.379 9.756 132.443 9.884C132.517 10.012 132.635 10.124 132.795 10.22C132.955 10.316 133.157 10.4013 133.403 10.476C133.659 10.5507 133.963 10.6307 134.315 10.716C134.869 10.844 135.349 10.9773 135.755 11.116C136.171 11.244 136.512 11.3987 136.779 11.58C137.056 11.7613 137.259 11.9747 137.387 12.22C137.525 12.4653 137.595 12.764 137.595 13.116C137.595 13.8947 137.296 14.5133 136.699 14.972C136.101 15.4307 135.296 15.66 134.283 15.66Z" fill="#464646"/>
<path d="M181.496 4.14V15.5H180.056V10.332H173.8V15.5H172.36V4.14H173.8V9.052H180.056V4.14H181.496ZM187.503 15.66C186.671 15.66 185.935 15.4627 185.295 15.068C184.665 14.6627 184.175 14.1347 183.823 13.484C183.471 12.8227 183.295 12.108 183.295 11.34C183.295 10.5613 183.471 9.84667 183.823 9.196C184.185 8.53467 184.681 8.00667 185.311 7.612C185.951 7.20667 186.681 7.004 187.503 7.004C188.335 7.004 189.065 7.20667 189.695 7.612C190.335 8.00667 190.831 8.53467 191.183 9.196C191.545 9.84667 191.727 10.5613 191.727 11.34C191.727 12.108 191.545 12.8227 191.183 13.484C190.831 14.1347 190.34 14.6627 189.711 15.068C189.081 15.4627 188.345 15.66 187.503 15.66ZM184.735 11.356C184.735 11.932 184.857 12.4547 185.103 12.924C185.359 13.3933 185.695 13.7667 186.111 14.044C186.527 14.3107 186.991 14.444 187.503 14.444C188.015 14.444 188.479 14.3053 188.895 14.028C189.321 13.7507 189.657 13.3773 189.903 12.908C190.159 12.428 190.287 11.9 190.287 11.324C190.287 10.748 190.159 10.2253 189.903 9.756C189.657 9.28667 189.321 8.91333 188.895 8.636C188.479 8.35867 188.015 8.22 187.503 8.22C186.991 8.22 186.527 8.364 186.111 8.652C185.695 8.92933 185.359 9.30267 185.103 9.772C184.857 10.2413 184.735 10.7693 184.735 11.356ZM197.721 15.66C197.07 15.66 196.478 15.5 195.945 15.18C195.412 14.86 194.99 14.444 194.681 13.932V15.5H193.433V3.82H194.841V8.812C195.193 8.268 195.625 7.83067 196.137 7.5C196.649 7.16933 197.246 7.004 197.929 7.004C198.505 7.004 199.022 7.12667 199.481 7.372C199.94 7.60667 200.329 7.932 200.649 8.348C200.98 8.75333 201.23 9.21733 201.401 9.74C201.582 10.252 201.673 10.7907 201.673 11.356C201.673 12.1347 201.497 12.8547 201.145 13.516C200.804 14.1667 200.334 14.6893 199.737 15.084C199.14 15.468 198.468 15.66 197.721 15.66ZM197.369 14.444C197.934 14.444 198.43 14.3 198.857 14.012C199.284 13.7133 199.62 13.3293 199.865 12.86C200.11 12.3907 200.233 11.8893 200.233 11.356C200.233 10.812 200.116 10.3 199.881 9.82C199.657 9.34 199.337 8.956 198.921 8.668C198.516 8.36933 198.041 8.22 197.497 8.22C196.9 8.22 196.366 8.412 195.897 8.796C195.438 9.18 195.086 9.63867 194.841 10.172V12.588C194.916 12.94 195.086 13.26 195.353 13.548C195.63 13.8253 195.95 14.044 196.313 14.204C196.686 14.364 197.038 14.444 197.369 14.444ZM207.69 15.66C207.039 15.66 206.447 15.5 205.914 15.18C205.38 14.86 204.959 14.444 204.65 13.932V15.5H203.402V3.82H204.81V8.812C205.162 8.268 205.594 7.83067 206.106 7.5C206.618 7.16933 207.215 7.004 207.898 7.004C208.474 7.004 208.991 7.12667 209.45 7.372C209.908 7.60667 210.298 7.932 210.618 8.348C210.948 8.75333 211.199 9.21733 211.37 9.74C211.551 10.252 211.642 10.7907 211.642 11.356C211.642 12.1347 211.466 12.8547 211.114 13.516C210.772 14.1667 210.303 14.6893 209.706 15.084C209.108 15.468 208.436 15.66 207.69 15.66ZM207.338 14.444C207.903 14.444 208.399 14.3 208.826 14.012C209.252 13.7133 209.588 13.3293 209.834 12.86C210.079 12.3907 210.202 11.8893 210.202 11.356C210.202 10.812 210.084 10.3 209.85 9.82C209.626 9.34 209.306 8.956 208.89 8.668C208.484 8.36933 208.01 8.22 207.466 8.22C206.868 8.22 206.335 8.412 205.866 8.796C205.407 9.18 205.055 9.63867 204.81 10.172V12.588C204.884 12.94 205.055 13.26 205.322 13.548C205.599 13.8253 205.919 14.044 206.282 14.204C206.655 14.364 207.007 14.444 207.338 14.444ZM213.37 5.58V3.82H214.778V5.58H213.37ZM213.37 15.5V7.148H214.778V15.5H213.37ZM220.754 15.66C219.922 15.66 219.186 15.4627 218.546 15.068C217.906 14.6733 217.405 14.1453 217.042 13.484C216.679 12.8227 216.498 12.1027 216.498 11.324C216.498 10.5347 216.679 9.81467 217.042 9.164C217.405 8.51333 217.906 7.99067 218.546 7.596C219.197 7.20133 219.938 7.004 220.77 7.004C221.613 7.004 222.343 7.20667 222.962 7.612C223.591 8.00667 224.077 8.52933 224.418 9.18C224.77 9.82 224.946 10.5133 224.946 11.26C224.946 11.4947 224.935 11.676 224.914 11.804H217.986C218.029 12.348 218.178 12.8333 218.434 13.26C218.701 13.676 219.042 14.0067 219.458 14.252C219.874 14.4867 220.322 14.604 220.802 14.604C221.314 14.604 221.794 14.476 222.242 14.22C222.701 13.964 223.015 13.628 223.186 13.212L224.402 13.548C224.135 14.1667 223.671 14.6733 223.01 15.068C222.349 15.4627 221.597 15.66 220.754 15.66ZM217.938 10.828H223.634C223.591 10.284 223.437 9.804 223.17 9.388C222.903 8.972 222.562 8.64667 222.146 8.412C221.73 8.17733 221.271 8.06 220.77 8.06C220.279 8.06 219.826 8.17733 219.41 8.412C218.994 8.64667 218.653 8.972 218.386 9.388C218.13 9.804 217.981 10.284 217.938 10.828ZM229.375 15.66C228.682 15.66 228.031 15.548 227.423 15.324C226.815 15.0893 226.292 14.7427 225.855 14.284L226.399 13.292C226.879 13.74 227.359 14.06 227.839 14.252C228.319 14.444 228.81 14.54 229.311 14.54C229.887 14.54 230.356 14.4333 230.719 14.22C231.082 13.996 231.263 13.6707 231.263 13.244C231.263 12.9347 231.167 12.7053 230.975 12.556C230.794 12.4067 230.532 12.284 230.191 12.188C229.85 12.0813 229.444 11.964 228.975 11.836C228.111 11.5907 227.45 11.3027 226.991 10.972C226.543 10.6307 226.319 10.1347 226.319 9.484C226.319 8.69467 226.618 8.08667 227.215 7.66C227.823 7.22267 228.596 7.004 229.535 7.004C230.794 7.004 231.786 7.38267 232.511 8.14L231.871 9.116C231.22 8.444 230.415 8.108 229.455 8.108C229.167 8.108 228.884 8.14533 228.607 8.22C228.33 8.284 228.1 8.40667 227.919 8.588C227.738 8.75867 227.647 9.004 227.647 9.324C227.647 9.71867 227.807 10.0013 228.127 10.172C228.447 10.3427 228.916 10.5187 229.535 10.7C230.164 10.8813 230.708 11.0627 231.167 11.244C231.636 11.4253 231.999 11.66 232.255 11.948C232.511 12.236 232.639 12.636 232.639 13.148C232.639 13.9373 232.34 14.556 231.743 15.004C231.146 15.4413 230.356 15.66 229.375 15.66Z" fill="#464646"/>
<path d="M267.36 15.5V4.14H274.864V5.42H268.8V9.212H273.904V10.412H268.8V15.5H267.36ZM279.597 15.66C278.765 15.66 278.029 15.4627 277.389 15.068C276.759 14.6627 276.269 14.1347 275.917 13.484C275.565 12.8227 275.389 12.108 275.389 11.34C275.389 10.5613 275.565 9.84667 275.917 9.196C276.279 8.53467 276.775 8.00667 277.405 7.612C278.045 7.20667 278.775 7.004 279.597 7.004C280.429 7.004 281.159 7.20667 281.789 7.612C282.429 8.00667 282.925 8.53467 283.277 9.196C283.639 9.84667 283.821 10.5613 283.821 11.34C283.821 12.108 283.639 12.8227 283.277 13.484C282.925 14.1347 282.434 14.6627 281.805 15.068C281.175 15.4627 280.439 15.66 279.597 15.66ZM276.829 11.356C276.829 11.932 276.951 12.4547 277.197 12.924C277.453 13.3933 277.789 13.7667 278.205 14.044C278.621 14.3107 279.085 14.444 279.597 14.444C280.109 14.444 280.573 14.3053 280.989 14.028C281.415 13.7507 281.751 13.3773 281.997 12.908C282.253 12.428 282.381 11.9 282.381 11.324C282.381 10.748 282.253 10.2253 281.997 9.756C281.751 9.28667 281.415 8.91333 280.989 8.636C280.573 8.35867 280.109 8.22 279.597 8.22C279.085 8.22 278.621 8.364 278.205 8.652C277.789 8.92933 277.453 9.30267 277.197 9.772C276.951 10.2413 276.829 10.7693 276.829 11.356ZM289.943 8.38C289.239 8.39067 288.615 8.572 288.071 8.924C287.537 9.26533 287.159 9.74 286.935 10.348V15.5H285.527V7.148H286.839V9.084C287.127 8.508 287.505 8.044 287.975 7.692C288.455 7.32933 288.956 7.12667 289.479 7.084C289.585 7.084 289.676 7.084 289.751 7.084C289.825 7.084 289.889 7.08933 289.943 7.1V8.38ZM303.931 15.5H302.523V10.828C302.523 9.95333 302.379 9.308 302.091 8.892C301.814 8.476 301.398 8.268 300.843 8.268C300.278 8.268 299.766 8.476 299.307 8.892C298.848 9.29733 298.523 9.82533 298.331 10.476V15.5H296.923V10.828C296.923 9.94267 296.784 9.29733 296.507 8.892C296.23 8.476 295.814 8.268 295.259 8.268C294.704 8.268 294.192 8.47067 293.723 8.876C293.264 9.27067 292.939 9.79867 292.747 10.46V15.5H291.339V7.148H292.619V8.94C292.96 8.32133 293.403 7.84667 293.947 7.516C294.491 7.17467 295.104 7.004 295.787 7.004C296.48 7.004 297.035 7.196 297.451 7.58C297.867 7.95333 298.123 8.43867 298.219 9.036C298.966 7.68133 300.027 7.004 301.403 7.004C302.043 7.004 302.544 7.15867 302.907 7.468C303.28 7.76667 303.542 8.18267 303.691 8.716C303.851 9.23867 303.931 9.836 303.931 10.508V15.5ZM305.464 13.084C305.464 12.5507 305.614 12.092 305.912 11.708C306.222 11.3133 306.643 11.0093 307.176 10.796C307.71 10.5827 308.328 10.476 309.032 10.476C309.406 10.476 309.8 10.508 310.216 10.572C310.632 10.6253 311 10.7107 311.32 10.828V10.22C311.32 9.58 311.128 9.07867 310.744 8.716C310.36 8.34267 309.816 8.156 309.112 8.156C308.654 8.156 308.211 8.24133 307.784 8.412C307.368 8.572 306.926 8.80667 306.456 9.116L305.944 8.124C306.488 7.75067 307.032 7.47333 307.576 7.292C308.12 7.1 308.686 7.004 309.272 7.004C310.339 7.004 311.182 7.30267 311.8 7.9C312.419 8.48667 312.728 9.308 312.728 10.364V13.9C312.728 14.2307 312.878 14.4013 313.176 14.412V15.5C313.038 15.5213 312.915 15.5373 312.808 15.548C312.712 15.5587 312.632 15.564 312.568 15.564C312.238 15.564 311.987 15.4733 311.816 15.292C311.656 15.1107 311.566 14.9187 311.544 14.716L311.512 14.188C311.15 14.6573 310.675 15.02 310.088 15.276C309.502 15.532 308.92 15.66 308.344 15.66C307.79 15.66 307.294 15.548 306.856 15.324C306.419 15.0893 306.078 14.78 305.832 14.396C305.587 14.0013 305.464 13.564 305.464 13.084ZM310.904 13.676C311.032 13.5267 311.134 13.3773 311.208 13.228C311.283 13.068 311.32 12.9347 311.32 12.828V11.788C310.638 11.5213 309.934 11.388 309.208 11.388C308.494 11.388 307.912 11.532 307.464 11.82C307.027 12.0973 306.808 12.4813 306.808 12.972C306.808 13.2387 306.878 13.5 307.016 13.756C307.166 14.0013 307.379 14.204 307.656 14.364C307.944 14.524 308.296 14.604 308.712 14.604C309.15 14.604 309.566 14.5187 309.96 14.348C310.355 14.1667 310.67 13.9427 310.904 13.676ZM318.676 15.66C317.844 15.66 317.108 15.4627 316.468 15.068C315.828 14.6627 315.326 14.1293 314.964 13.468C314.601 12.8067 314.42 12.0867 314.42 11.308C314.42 10.5187 314.596 9.79867 314.948 9.148C315.3 8.49733 315.796 7.98 316.436 7.596C317.076 7.20133 317.817 7.004 318.66 7.004C319.481 7.004 320.196 7.19067 320.804 7.564C321.422 7.92667 321.881 8.41733 322.18 9.036L320.804 9.468C320.59 9.07333 320.292 8.76933 319.908 8.556C319.524 8.332 319.097 8.22 318.628 8.22C318.116 8.22 317.646 8.35333 317.22 8.62C316.804 8.88667 316.473 9.25467 316.228 9.724C315.982 10.1827 315.86 10.7107 315.86 11.308C315.86 11.8947 315.982 12.428 316.228 12.908C316.484 13.3773 316.82 13.7507 317.236 14.028C317.662 14.3053 318.132 14.444 318.644 14.444C318.974 14.444 319.289 14.3853 319.588 14.268C319.897 14.1507 320.164 13.996 320.388 13.804C320.622 13.6013 320.782 13.3827 320.868 13.148L322.244 13.564C321.998 14.172 321.55 14.6733 320.9 15.068C320.26 15.4627 319.518 15.66 318.676 15.66ZM323.839 5.58V3.82H325.247V5.58H323.839ZM323.839 15.5V7.148H325.247V15.5H323.839ZM331.175 15.66C330.343 15.66 329.607 15.4627 328.967 15.068C328.337 14.6627 327.847 14.1347 327.495 13.484C327.143 12.8227 326.967 12.108 326.967 11.34C326.967 10.5613 327.143 9.84667 327.495 9.196C327.857 8.53467 328.353 8.00667 328.983 7.612C329.623 7.20667 330.353 7.004 331.175 7.004C332.007 7.004 332.737 7.20667 333.367 7.612C334.007 8.00667 334.503 8.53467 334.855 9.196C335.217 9.84667 335.399 10.5613 335.399 11.34C335.399 12.108 335.217 12.8227 334.855 13.484C334.503 14.1347 334.012 14.6627 333.383 15.068C332.753 15.4627 332.017 15.66 331.175 15.66ZM328.407 11.356C328.407 11.932 328.529 12.4547 328.775 12.924C329.031 13.3933 329.367 13.7667 329.783 14.044C330.199 14.3107 330.663 14.444 331.175 14.444C331.687 14.444 332.151 14.3053 332.567 14.028C332.993 13.7507 333.329 13.3773 333.575 12.908C333.831 12.428 333.959 11.9 333.959 11.324C333.959 10.748 333.831 10.2253 333.575 9.756C333.329 9.28667 332.993 8.91333 332.567 8.636C332.151 8.35867 331.687 8.22 331.175 8.22C330.663 8.22 330.199 8.364 329.783 8.652C329.367 8.92933 329.031 9.30267 328.775 9.772C328.529 10.2413 328.407 10.7693 328.407 11.356ZM331.671 5.756L330.743 5.436L331.671 3.82H333.079L331.671 5.756ZM344.353 15.5H342.945V10.828C342.945 9.94267 342.806 9.29733 342.529 8.892C342.262 8.476 341.851 8.268 341.297 8.268C340.913 8.268 340.529 8.364 340.145 8.556C339.771 8.748 339.435 9.00933 339.137 9.34C338.849 9.66 338.641 10.0333 338.513 10.46V15.5H337.105V7.148H338.385V8.94C338.715 8.35333 339.19 7.884 339.809 7.532C340.438 7.18 341.121 7.004 341.857 7.004C342.507 7.004 343.009 7.15867 343.361 7.468C343.723 7.76667 343.979 8.18267 344.129 8.716C344.278 9.23867 344.353 9.836 344.353 10.508V15.5Z" fill="#464646"/>
<path d="M379.36 15.5V4.14H384.096C384.597 4.14 385.056 4.24667 385.472 4.46C385.888 4.66267 386.251 4.94 386.56 5.292C386.869 5.63333 387.109 6.02267 387.28 6.46C387.451 6.88667 387.536 7.324 387.536 7.772C387.536 8.39067 387.397 8.98267 387.12 9.548C386.843 10.1027 386.453 10.556 385.952 10.908C385.451 11.2493 384.864 11.42 384.192 11.42H380.8V15.5H379.36ZM380.8 10.14H384.112C384.507 10.14 384.848 10.0333 385.136 9.82C385.435 9.60667 385.664 9.31867 385.824 8.956C385.995 8.59333 386.08 8.19867 386.08 7.772C386.08 7.324 385.984 6.924 385.792 6.572C385.6 6.20933 385.349 5.92667 385.04 5.724C384.731 5.52133 384.389 5.42 384.016 5.42H380.8V10.14ZM393.521 8.38C392.817 8.39067 392.193 8.572 391.649 8.924C391.115 9.26533 390.737 9.74 390.513 10.348V15.5H389.105V7.148H390.417V9.084C390.705 8.508 391.083 8.044 391.553 7.692C392.033 7.32933 392.534 7.12667 393.057 7.084C393.163 7.084 393.254 7.084 393.329 7.084C393.403 7.084 393.467 7.08933 393.521 7.1V8.38ZM398.378 15.66C397.546 15.66 396.81 15.4627 396.17 15.068C395.54 14.6627 395.05 14.1347 394.698 13.484C394.346 12.8227 394.17 12.108 394.17 11.34C394.17 10.5613 394.346 9.84667 394.698 9.196C395.06 8.53467 395.556 8.00667 396.186 7.612C396.826 7.20667 397.556 7.004 398.378 7.004C399.21 7.004 399.94 7.20667 400.57 7.612C401.21 8.00667 401.706 8.53467 402.058 9.196C402.42 9.84667 402.602 10.5613 402.602 11.34C402.602 12.108 402.42 12.8227 402.058 13.484C401.706 14.1347 401.215 14.6627 400.586 15.068C399.956 15.4627 399.22 15.66 398.378 15.66ZM395.61 11.356C395.61 11.932 395.732 12.4547 395.978 12.924C396.234 13.3933 396.57 13.7667 396.986 14.044C397.402 14.3107 397.866 14.444 398.378 14.444C398.89 14.444 399.354 14.3053 399.77 14.028C400.196 13.7507 400.532 13.3773 400.778 12.908C401.034 12.428 401.162 11.9 401.162 11.324C401.162 10.748 401.034 10.2253 400.778 9.756C400.532 9.28667 400.196 8.91333 399.77 8.636C399.354 8.35867 398.89 8.22 398.378 8.22C397.866 8.22 397.402 8.364 396.986 8.652C396.57 8.92933 396.234 9.30267 395.978 9.772C395.732 10.2413 395.61 10.7693 395.61 11.356ZM404.395 17.772C404.534 17.7827 404.672 17.7933 404.811 17.804C404.95 17.8253 405.056 17.836 405.131 17.836C405.302 17.836 405.451 17.7773 405.579 17.66C405.707 17.5427 405.846 17.3133 405.995 16.972C406.155 16.6413 406.358 16.1507 406.603 15.5L403.067 7.148H404.555L407.371 14.076L409.915 7.148H411.307L407.243 17.692C407.104 18.0653 406.854 18.3907 406.491 18.668C406.139 18.956 405.664 19.1 405.067 19.1C404.971 19.1 404.87 19.0947 404.763 19.084C404.667 19.0733 404.544 19.052 404.395 19.02V17.772ZM416.129 15.66C415.297 15.66 414.561 15.4627 413.921 15.068C413.281 14.6733 412.78 14.1453 412.417 13.484C412.054 12.8227 411.873 12.1027 411.873 11.324C411.873 10.5347 412.054 9.81467 412.417 9.164C412.78 8.51333 413.281 7.99067 413.921 7.596C414.572 7.20133 415.313 7.004 416.145 7.004C416.988 7.004 417.718 7.20667 418.337 7.612C418.966 8.00667 419.452 8.52933 419.793 9.18C420.145 9.82 420.321 10.5133 420.321 11.26C420.321 11.4947 420.31 11.676 420.289 11.804H413.361C413.404 12.348 413.553 12.8333 413.809 13.26C414.076 13.676 414.417 14.0067 414.833 14.252C415.249 14.4867 415.697 14.604 416.177 14.604C416.689 14.604 417.169 14.476 417.617 14.22C418.076 13.964 418.39 13.628 418.561 13.212L419.777 13.548C419.51 14.1667 419.046 14.6733 418.385 15.068C417.724 15.4627 416.972 15.66 416.129 15.66ZM413.313 10.828H419.009C418.966 10.284 418.812 9.804 418.545 9.388C418.278 8.972 417.937 8.64667 417.521 8.412C417.105 8.17733 416.646 8.06 416.145 8.06C415.654 8.06 415.201 8.17733 414.785 8.412C414.369 8.64667 414.028 8.972 413.761 9.388C413.505 9.804 413.356 10.284 413.313 10.828ZM425.582 15.66C424.75 15.66 424.014 15.4627 423.374 15.068C422.734 14.6627 422.233 14.1293 421.87 13.468C421.507 12.8067 421.326 12.0867 421.326 11.308C421.326 10.5187 421.502 9.79867 421.854 9.148C422.206 8.49733 422.702 7.98 423.342 7.596C423.982 7.20133 424.723 7.004 425.566 7.004C426.387 7.004 427.102 7.19067 427.71 7.564C428.329 7.92667 428.787 8.41733 429.086 9.036L427.71 9.468C427.497 9.07333 427.198 8.76933 426.814 8.556C426.43 8.332 426.003 8.22 425.534 8.22C425.022 8.22 424.553 8.35333 424.126 8.62C423.71 8.88667 423.379 9.25467 423.134 9.724C422.889 10.1827 422.766 10.7107 422.766 11.308C422.766 11.8947 422.889 12.428 423.134 12.908C423.39 13.3773 423.726 13.7507 424.142 14.028C424.569 14.3053 425.038 14.444 425.55 14.444C425.881 14.444 426.195 14.3853 426.494 14.268C426.803 14.1507 427.07 13.996 427.294 13.804C427.529 13.6013 427.689 13.3827 427.774 13.148L429.15 13.564C428.905 14.172 428.457 14.6733 427.806 15.068C427.166 15.4627 426.425 15.66 425.582 15.66ZM435.065 15.084C434.895 15.1587 434.623 15.2653 434.249 15.404C433.887 15.5427 433.481 15.612 433.033 15.612C432.521 15.612 432.079 15.4733 431.705 15.196C431.332 14.908 431.145 14.4653 431.145 13.868V8.252H430.009V7.148H431.145V4.364H432.553V7.148H434.425V8.252H432.553V13.436C432.575 13.7347 432.676 13.9587 432.857 14.108C433.039 14.2467 433.252 14.316 433.497 14.316C433.775 14.316 434.031 14.268 434.265 14.172C434.5 14.076 434.655 14.0067 434.729 13.964L435.065 15.084ZM439.909 15.66C439.077 15.66 438.341 15.4627 437.701 15.068C437.072 14.6627 436.581 14.1347 436.229 13.484C435.877 12.8227 435.701 12.108 435.701 11.34C435.701 10.5613 435.877 9.84667 436.229 9.196C436.592 8.53467 437.088 8.00667 437.717 7.612C438.357 7.20667 439.088 7.004 439.909 7.004C440.741 7.004 441.472 7.20667 442.101 7.612C442.741 8.00667 443.237 8.53467 443.589 9.196C443.952 9.84667 444.133 10.5613 444.133 11.34C444.133 12.108 443.952 12.8227 443.589 13.484C443.237 14.1347 442.746 14.6627 442.117 15.068C441.488 15.4627 440.752 15.66 439.909 15.66ZM437.141 11.356C437.141 11.932 437.264 12.4547 437.509 12.924C437.765 13.3933 438.101 13.7667 438.517 14.044C438.933 14.3107 439.397 14.444 439.909 14.444C440.421 14.444 440.885 14.3053 441.301 14.028C441.728 13.7507 442.064 13.3773 442.309 12.908C442.565 12.428 442.693 11.9 442.693 11.324C442.693 10.748 442.565 10.2253 442.309 9.756C442.064 9.28667 441.728 8.91333 441.301 8.636C440.885 8.35867 440.421 8.22 439.909 8.22C439.397 8.22 438.933 8.364 438.517 8.652C438.101 8.92933 437.765 9.30267 437.509 9.772C437.264 10.2413 437.141 10.7693 437.141 11.356ZM448.703 15.66C448.01 15.66 447.359 15.548 446.751 15.324C446.143 15.0893 445.62 14.7427 445.183 14.284L445.727 13.292C446.207 13.74 446.687 14.06 447.167 14.252C447.647 14.444 448.138 14.54 448.639 14.54C449.215 14.54 449.684 14.4333 450.047 14.22C450.41 13.996 450.591 13.6707 450.591 13.244C450.591 12.9347 450.495 12.7053 450.303 12.556C450.122 12.4067 449.86 12.284 449.519 12.188C449.178 12.0813 448.772 11.964 448.303 11.836C447.439 11.5907 446.778 11.3027 446.319 10.972C445.871 10.6307 445.647 10.1347 445.647 9.484C445.647 8.69467 445.946 8.08667 446.543 7.66C447.151 7.22267 447.924 7.004 448.863 7.004C450.122 7.004 451.114 7.38267 451.839 8.14L451.199 9.116C450.548 8.444 449.743 8.108 448.783 8.108C448.495 8.108 448.212 8.14533 447.935 8.22C447.658 8.284 447.428 8.40667 447.247 8.588C447.066 8.75867 446.975 9.004 446.975 9.324C446.975 9.71867 447.135 10.0013 447.455 10.172C447.775 10.3427 448.244 10.5187 448.863 10.7C449.492 10.8813 450.036 11.0627 450.495 11.244C450.964 11.4253 451.327 11.66 451.583 11.948C451.839 12.236 451.967 12.636 451.967 13.148C451.967 13.9373 451.668 14.556 451.071 15.004C450.474 15.4413 449.684 15.66 448.703 15.66Z" fill="#464646"/>
<path d="M489.88 15.66C488.973 15.66 488.189 15.4573 487.528 15.052C486.867 14.6467 486.355 14.1133 485.992 13.452C485.629 12.7907 485.448 12.076 485.448 11.308C485.448 10.5293 485.624 9.80933 485.976 9.148C486.339 8.48667 486.851 7.95867 487.512 7.564C488.173 7.16933 488.957 6.972 489.864 6.972C490.781 6.972 491.56 7.16933 492.2 7.564C492.851 7.95867 493.336 8.476 493.656 9.116L491.56 9.756C491.187 9.116 490.616 8.796 489.848 8.796C489.432 8.796 489.059 8.90267 488.728 9.116C488.397 9.31867 488.136 9.612 487.944 9.996C487.752 10.3693 487.656 10.8067 487.656 11.308C487.656 11.7987 487.752 12.236 487.944 12.62C488.147 12.9933 488.413 13.292 488.744 13.516C489.075 13.7293 489.443 13.836 489.848 13.836C490.232 13.836 490.584 13.7453 490.904 13.564C491.235 13.372 491.464 13.132 491.592 12.844L493.688 13.484C493.4 14.1133 492.92 14.636 492.248 15.052C491.587 15.4573 490.797 15.66 489.88 15.66ZM498.801 15.66C497.884 15.66 497.094 15.4627 496.433 15.068C495.782 14.6627 495.281 14.1293 494.929 13.468C494.577 12.8067 494.401 12.092 494.401 11.324C494.401 10.5453 494.577 9.82533 494.929 9.164C495.292 8.50267 495.798 7.97467 496.449 7.58C497.11 7.17467 497.894 6.972 498.801 6.972C499.708 6.972 500.486 7.17467 501.137 7.58C501.798 7.97467 502.305 8.50267 502.657 9.164C503.009 9.82533 503.185 10.5453 503.185 11.324C503.185 12.092 503.009 12.8067 502.657 13.468C502.305 14.1293 501.798 14.6627 501.137 15.068C500.486 15.4627 499.708 15.66 498.801 15.66ZM496.609 11.324C496.609 11.8147 496.705 12.252 496.897 12.636C497.089 13.0093 497.35 13.3027 497.681 13.516C498.012 13.7293 498.385 13.836 498.801 13.836C499.206 13.836 499.574 13.7293 499.905 13.516C500.236 13.292 500.497 12.9933 500.689 12.62C500.892 12.236 500.993 11.7987 500.993 11.308C500.993 10.828 500.892 10.4013 500.689 10.028C500.497 9.644 500.236 9.34533 499.905 9.132C499.574 8.908 499.206 8.796 498.801 8.796C498.385 8.796 498.012 8.908 497.681 9.132C497.35 9.34533 497.089 9.644 496.897 10.028C496.705 10.4013 496.609 10.8333 496.609 11.324ZM512.424 15.5H510.28V10.796C510.28 10.124 510.163 9.63333 509.928 9.324C509.694 9.01467 509.368 8.86 508.952 8.86C508.664 8.86 508.371 8.93467 508.072 9.084C507.784 9.23333 507.523 9.44133 507.288 9.708C507.054 9.964 506.883 10.2627 506.776 10.604V15.5H504.632V7.116H506.568V8.668C506.878 8.14533 507.326 7.73467 507.912 7.436C508.499 7.12667 509.16 6.972 509.896 6.972C510.419 6.972 510.846 7.068 511.176 7.26C511.507 7.44133 511.763 7.692 511.944 8.012C512.126 8.32133 512.248 8.67333 512.312 9.068C512.387 9.46267 512.424 9.86267 512.424 10.268V15.5ZM519.266 15.068C518.978 15.196 518.62 15.324 518.194 15.452C517.778 15.58 517.346 15.644 516.898 15.644C516.503 15.644 516.14 15.5747 515.81 15.436C515.479 15.2973 515.212 15.0787 515.01 14.78C514.818 14.4707 514.722 14.0707 514.722 13.58V8.764H513.618V7.116H514.722V4.396H516.866V7.116H518.626V8.764H516.866V12.86C516.866 13.148 516.94 13.356 517.09 13.484C517.25 13.612 517.442 13.676 517.666 13.676C517.89 13.676 518.108 13.6387 518.322 13.564C518.535 13.4893 518.706 13.4253 518.834 13.372L519.266 15.068ZM519.806 13.02C519.806 12.476 519.956 12.0013 520.254 11.596C520.564 11.18 520.99 10.86 521.534 10.636C522.078 10.412 522.702 10.3 523.406 10.3C523.758 10.3 524.116 10.332 524.478 10.396C524.841 10.4493 525.156 10.5293 525.422 10.636V10.188C525.422 9.65467 525.262 9.244 524.942 8.956C524.633 8.668 524.169 8.524 523.55 8.524C523.092 8.524 522.654 8.604 522.238 8.764C521.822 8.924 521.385 9.15867 520.926 9.468L520.238 8.06C520.793 7.69733 521.358 7.42533 521.934 7.244C522.521 7.06267 523.134 6.972 523.774 6.972C524.969 6.972 525.897 7.27067 526.558 7.868C527.23 8.46533 527.566 9.31867 527.566 10.428V13.1C527.566 13.3347 527.604 13.5 527.678 13.596C527.753 13.6813 527.886 13.7347 528.078 13.756V15.5C527.886 15.5427 527.71 15.5693 527.55 15.58C527.401 15.6013 527.273 15.612 527.166 15.612C526.74 15.612 526.414 15.516 526.19 15.324C525.966 15.132 525.833 14.8973 525.79 14.62L525.742 14.188C525.369 14.668 524.91 15.036 524.366 15.292C523.833 15.5373 523.284 15.66 522.718 15.66C522.153 15.66 521.652 15.548 521.214 15.324C520.777 15.0893 520.43 14.7747 520.174 14.38C519.929 13.9747 519.806 13.5213 519.806 13.02ZM525.022 13.452C525.289 13.196 525.422 12.9507 525.422 12.716V11.868C524.868 11.644 524.308 11.532 523.742 11.532C523.177 11.532 522.718 11.6547 522.366 11.9C522.014 12.1347 521.838 12.4493 521.838 12.844C521.838 13.164 521.966 13.452 522.222 13.708C522.478 13.964 522.846 14.092 523.326 14.092C523.646 14.092 523.956 14.0333 524.254 13.916C524.564 13.7987 524.82 13.644 525.022 13.452ZM533.474 15.66C532.567 15.66 531.783 15.4573 531.122 15.052C530.46 14.6467 529.948 14.1133 529.586 13.452C529.223 12.7907 529.042 12.076 529.042 11.308C529.042 10.5293 529.218 9.80933 529.57 9.148C529.932 8.48667 530.444 7.95867 531.106 7.564C531.767 7.16933 532.551 6.972 533.458 6.972C534.375 6.972 535.154 7.16933 535.794 7.564C536.444 7.95867 536.93 8.476 537.25 9.116L535.154 9.756C534.78 9.116 534.21 8.796 533.442 8.796C533.026 8.796 532.652 8.90267 532.322 9.116C531.991 9.31867 531.73 9.612 531.538 9.996C531.346 10.3693 531.25 10.8067 531.25 11.308C531.25 11.7987 531.346 12.236 531.538 12.62C531.74 12.9933 532.007 13.292 532.338 13.516C532.668 13.7293 533.036 13.836 533.442 13.836C533.826 13.836 534.178 13.7453 534.498 13.564C534.828 13.372 535.058 13.132 535.186 12.844L537.282 13.484C536.994 14.1133 536.514 14.636 535.842 15.052C535.18 15.4573 534.391 15.66 533.474 15.66ZM543.625 15.068C543.337 15.196 542.98 15.324 542.553 15.452C542.137 15.58 541.705 15.644 541.257 15.644C540.862 15.644 540.5 15.5747 540.169 15.436C539.838 15.2973 539.572 15.0787 539.369 14.78C539.177 14.4707 539.081 14.0707 539.081 13.58V8.764H537.977V7.116H539.081V4.396H541.225V7.116H542.985V8.764H541.225V12.86C541.225 13.148 541.3 13.356 541.449 13.484C541.609 13.612 541.801 13.676 542.025 13.676C542.249 13.676 542.468 13.6387 542.681 13.564C542.894 13.4893 543.065 13.4253 543.193 13.372L543.625 15.068ZM548.504 15.66C547.587 15.66 546.798 15.4627 546.136 15.068C545.486 14.6627 544.984 14.1293 544.632 13.468C544.28 12.8067 544.104 12.092 544.104 11.324C544.104 10.5453 544.28 9.82533 544.632 9.164C544.995 8.50267 545.502 7.97467 546.152 7.58C546.814 7.17467 547.598 6.972 548.504 6.972C549.411 6.972 550.19 7.17467 550.84 7.58C551.502 7.97467 552.008 8.50267 552.36 9.164C552.712 9.82533 552.888 10.5453 552.888 11.324C552.888 12.092 552.712 12.8067 552.36 13.468C552.008 14.1293 551.502 14.6627 550.84 15.068C550.19 15.4627 549.411 15.66 548.504 15.66ZM546.312 11.324C546.312 11.8147 546.408 12.252 546.6 12.636C546.792 13.0093 547.054 13.3027 547.384 13.516C547.715 13.7293 548.088 13.836 548.504 13.836C548.91 13.836 549.278 13.7293 549.608 13.516C549.939 13.292 550.2 12.9933 550.392 12.62C550.595 12.236 550.696 11.7987 550.696 11.308C550.696 10.828 550.595 10.4013 550.392 10.028C550.2 9.644 549.939 9.34533 549.608 9.132C549.278 8.908 548.91 8.796 548.504 8.796C548.088 8.796 547.715 8.908 547.384 9.132C547.054 9.34533 546.792 9.644 546.6 10.028C546.408 10.4013 546.312 10.8333 546.312 11.324ZM560.111 5.852C560.89 5.852 561.637 5.98533 562.351 6.252C563.077 6.508 563.717 6.89733 564.271 7.42C564.837 7.932 565.279 8.56667 565.599 9.324C565.919 10.0813 566.079 10.956 566.079 11.948C566.079 12.1293 566.069 12.3747 566.047 12.684C566.026 12.9933 565.973 13.324 565.887 13.676C565.802 14.028 565.669 14.364 565.487 14.684C565.306 14.9933 565.061 15.2493 564.751 15.452C564.453 15.6547 564.074 15.756 563.615 15.756C563.231 15.756 562.933 15.6867 562.719 15.548C562.517 15.42 562.367 15.2547 562.271 15.052C562.175 14.8493 562.117 14.6467 562.095 14.444C561.765 14.7747 561.359 15.0413 560.879 15.244C560.41 15.436 559.909 15.532 559.375 15.532C558.586 15.532 557.978 15.324 557.551 14.908C557.135 14.492 556.927 13.9533 556.927 13.292C556.927 12.7053 557.071 12.2413 557.359 11.9C557.658 11.5587 558.037 11.3187 558.495 11.18C558.954 11.0307 559.429 10.956 559.919 10.956C560.346 10.956 560.714 10.9987 561.023 11.084C561.333 11.1693 561.567 11.244 561.727 11.308C561.727 10.7213 561.605 10.2467 561.359 9.884C561.114 9.52133 560.629 9.34 559.903 9.34C559.466 9.34 559.066 9.404 558.703 9.532C558.341 9.66 558.031 9.83067 557.775 10.044L557.359 8.908C558.17 8.37467 559.087 8.108 560.111 8.108C560.805 8.108 561.343 8.21467 561.727 8.428C562.122 8.63067 562.41 8.90267 562.591 9.244C562.773 9.57467 562.885 9.93733 562.927 10.332C562.981 10.716 563.007 11.0893 563.007 11.452V12.988C563.007 13.2973 563.023 13.5907 563.055 13.868C563.087 14.1453 563.157 14.3693 563.263 14.54C563.381 14.7107 563.567 14.796 563.823 14.796C564.111 14.796 564.346 14.6893 564.527 14.476C564.709 14.2627 564.847 14.0013 564.943 13.692C565.039 13.372 565.103 13.052 565.135 12.732C565.167 12.412 565.183 12.14 565.183 11.916C565.183 10.924 564.965 10.0387 564.527 9.26C564.101 8.47067 563.498 7.852 562.719 7.404C561.951 6.94533 561.061 6.716 560.047 6.716C559.045 6.716 558.159 6.93467 557.391 7.372C556.623 7.80933 556.021 8.41733 555.583 9.196C555.146 9.964 554.927 10.8387 554.927 11.82C554.927 12.7693 555.13 13.6387 555.535 14.428C555.951 15.2067 556.527 15.8253 557.263 16.284C558.01 16.7427 558.879 16.972 559.871 16.972C560.373 16.972 560.815 16.9133 561.199 16.796C561.583 16.6787 561.973 16.5347 562.367 16.364L562.623 17.196C562.186 17.4093 561.727 17.5693 561.247 17.676C560.778 17.7827 560.309 17.836 559.839 17.836C559.039 17.836 558.287 17.692 557.583 17.404C556.89 17.116 556.277 16.7053 555.743 16.172C555.21 15.6387 554.789 15.004 554.479 14.268C554.181 13.532 554.031 12.716 554.031 11.82C554.031 10.8707 554.197 10.028 554.527 9.292C554.858 8.556 555.306 7.932 555.871 7.42C556.437 6.908 557.082 6.51867 557.807 6.252C558.543 5.98533 559.311 5.852 560.111 5.852ZM560.895 14.108C561.183 13.9693 561.391 13.7987 561.519 13.596C561.647 13.3827 561.711 13.1587 561.711 12.924V12.316C561.562 12.2733 561.322 12.2093 560.991 12.124C560.671 12.028 560.314 11.98 559.919 11.98C559.418 11.98 559.007 12.0813 558.687 12.284C558.367 12.476 558.207 12.796 558.207 13.244C558.207 13.6067 558.319 13.8947 558.543 14.108C558.778 14.3213 559.098 14.428 559.503 14.428C559.717 14.428 559.951 14.4013 560.207 14.348C560.463 14.2947 560.693 14.2147 560.895 14.108ZM568.363 15.5V9.196H567.259V7.564H568.363V7.052C568.363 6.01733 568.614 5.196 569.115 4.588C569.627 3.96933 570.31 3.66 571.163 3.66C571.846 3.66 572.534 3.82533 573.227 4.156L572.795 5.772C572.635 5.68667 572.443 5.61733 572.219 5.564C572.006 5.5 571.808 5.468 571.627 5.468C570.88 5.468 570.507 5.96933 570.507 6.972V7.564H572.555V9.196H570.507V15.5H568.363ZM573.693 12.364V7.116H575.837V11.9C575.837 13.1907 576.301 13.836 577.229 13.836C577.645 13.836 578.045 13.7133 578.429 13.468C578.824 13.212 579.144 12.828 579.389 12.316V7.116H581.533V13.1C581.533 13.3347 581.57 13.5 581.645 13.596C581.72 13.6813 581.853 13.7347 582.045 13.756V15.5C581.832 15.5427 581.65 15.5693 581.501 15.58C581.362 15.5907 581.234 15.596 581.117 15.596C580.733 15.596 580.418 15.5107 580.173 15.34C579.938 15.1587 579.8 14.9133 579.757 14.604L579.709 13.932C579.336 14.508 578.856 14.94 578.269 15.228C577.682 15.516 577.037 15.66 576.333 15.66C575.469 15.66 574.813 15.3827 574.365 14.828C573.917 14.2627 573.693 13.4413 573.693 12.364ZM583.648 3.82H585.792V12.812C585.792 13.2067 585.856 13.468 585.984 13.596C586.112 13.724 586.288 13.788 586.512 13.788C586.682 13.788 586.858 13.7667 587.04 13.724C587.221 13.6813 587.381 13.628 587.52 13.564L587.808 15.196C587.52 15.3347 587.184 15.4413 586.799 15.516C586.416 15.5907 586.069 15.628 585.76 15.628C585.088 15.628 584.565 15.452 584.192 15.1C583.829 14.7373 583.648 14.2253 583.648 13.564V3.82ZM588.166 13.02C588.166 12.476 588.315 12.0013 588.614 11.596C588.923 11.18 589.35 10.86 589.894 10.636C590.438 10.412 591.062 10.3 591.766 10.3C592.118 10.3 592.475 10.332 592.838 10.396C593.2 10.4493 593.515 10.5293 593.782 10.636V10.188C593.782 9.65467 593.622 9.244 593.302 8.956C592.992 8.668 592.528 8.524 591.91 8.524C591.451 8.524 591.014 8.604 590.598 8.764C590.182 8.924 589.744 9.15867 589.286 9.468L588.598 8.06C589.152 7.69733 589.718 7.42533 590.294 7.244C590.88 7.06267 591.494 6.972 592.134 6.972C593.328 6.972 594.256 7.27067 594.918 7.868C595.59 8.46533 595.926 9.31867 595.926 10.428V13.1C595.926 13.3347 595.963 13.5 596.038 13.596C596.112 13.6813 596.246 13.7347 596.438 13.756V15.5C596.246 15.5427 596.07 15.5693 595.91 15.58C595.76 15.6013 595.632 15.612 595.526 15.612C595.099 15.612 594.774 15.516 594.55 15.324C594.326 15.132 594.192 14.8973 594.15 14.62L594.102 14.188C593.728 14.668 593.27 15.036 592.726 15.292C592.192 15.5373 591.643 15.66 591.078 15.66C590.512 15.66 590.011 15.548 589.574 15.324C589.136 15.0893 588.79 14.7747 588.534 14.38C588.288 13.9747 588.166 13.5213 588.166 13.02ZM593.382 13.452C593.648 13.196 593.782 12.9507 593.782 12.716V11.868C593.227 11.644 592.667 11.532 592.102 11.532C591.536 11.532 591.078 11.6547 590.726 11.9C590.374 12.1347 590.198 12.4493 590.198 12.844C590.198 13.164 590.326 13.452 590.582 13.708C590.838 13.964 591.206 14.092 591.686 14.092C592.006 14.092 592.315 14.0333 592.614 13.916C592.923 13.7987 593.179 13.644 593.382 13.452ZM605.721 15.5H603.577V10.796C603.577 10.124 603.46 9.63333 603.225 9.324C602.99 9.01467 602.665 8.86 602.249 8.86C601.961 8.86 601.668 8.93467 601.369 9.084C601.081 9.23333 600.82 9.44133 600.585 9.708C600.35 9.964 600.18 10.2627 600.073 10.604V15.5H597.929V7.116H599.865V8.668C600.174 8.14533 600.622 7.73467 601.209 7.436C601.796 7.12667 602.457 6.972 603.193 6.972C603.716 6.972 604.142 7.068 604.473 7.26C604.804 7.44133 605.06 7.692 605.241 8.012C605.422 8.32133 605.545 8.67333 605.609 9.068C605.684 9.46267 605.721 9.86267 605.721 10.268V15.5ZM607.009 13.02C607.009 12.476 607.159 12.0013 607.457 11.596C607.767 11.18 608.193 10.86 608.737 10.636C609.281 10.412 609.905 10.3 610.609 10.3C610.961 10.3 611.319 10.332 611.681 10.396C612.044 10.4493 612.359 10.5293 612.625 10.636V10.188C612.625 9.65467 612.465 9.244 612.145 8.956C611.836 8.668 611.372 8.524 610.753 8.524C610.295 8.524 609.857 8.604 609.441 8.764C609.025 8.924 608.588 9.15867 608.129 9.468L607.441 8.06C607.996 7.69733 608.561 7.42533 609.137 7.244C609.724 7.06267 610.337 6.972 610.977 6.972C612.172 6.972 613.1 7.27067 613.761 7.868C614.433 8.46533 614.769 9.31867 614.769 10.428V13.1C614.769 13.3347 614.807 13.5 614.881 13.596C614.956 13.6813 615.089 13.7347 615.281 13.756V15.5C615.089 15.5427 614.913 15.5693 614.753 15.58C614.604 15.6013 614.476 15.612 614.369 15.612C613.943 15.612 613.617 15.516 613.393 15.324C613.169 15.132 613.036 14.8973 612.993 14.62L612.945 14.188C612.572 14.668 612.113 15.036 611.569 15.292C611.036 15.5373 610.487 15.66 609.921 15.66C609.356 15.66 608.855 15.548 608.417 15.324C607.98 15.0893 607.633 14.7747 607.377 14.38C607.132 13.9747 607.009 13.5213 607.009 13.02ZM612.225 13.452C612.492 13.196 612.625 12.9507 612.625 12.716V11.868C612.071 11.644 611.511 11.532 610.945 11.532C610.38 11.532 609.921 11.6547 609.569 11.9C609.217 12.1347 609.041 12.4493 609.041 12.844C609.041 13.164 609.169 13.452 609.425 13.708C609.681 13.964 610.049 14.092 610.529 14.092C610.849 14.092 611.159 14.0333 611.457 13.916C611.767 13.7987 612.023 13.644 612.225 13.452ZM616.725 15.5V13.196H618.485V15.5H616.725ZM624.099 15.66C623.192 15.66 622.408 15.4573 621.747 15.052C621.085 14.6467 620.573 14.1133 620.211 13.452C619.848 12.7907 619.667 12.076 619.667 11.308C619.667 10.5293 619.843 9.80933 620.195 9.148C620.557 8.48667 621.069 7.95867 621.731 7.564C622.392 7.16933 623.176 6.972 624.083 6.972C625 6.972 625.779 7.16933 626.419 7.564C627.069 7.95867 627.555 8.476 627.875 9.116L625.779 9.756C625.405 9.116 624.835 8.796 624.067 8.796C623.651 8.796 623.277 8.90267 622.947 9.116C622.616 9.31867 622.355 9.612 622.163 9.996C621.971 10.3693 621.875 10.8067 621.875 11.308C621.875 11.7987 621.971 12.236 622.163 12.62C622.365 12.9933 622.632 13.292 622.963 13.516C623.293 13.7293 623.661 13.836 624.067 13.836C624.451 13.836 624.803 13.7453 625.123 13.564C625.453 13.372 625.683 13.132 625.811 12.844L627.907 13.484C627.619 14.1133 627.139 14.636 626.467 15.052C625.805 15.4573 625.016 15.66 624.099 15.66ZM633.02 15.66C632.103 15.66 631.313 15.4627 630.652 15.068C630.001 14.6627 629.5 14.1293 629.148 13.468C628.796 12.8067 628.62 12.092 628.62 11.324C628.62 10.5453 628.796 9.82533 629.148 9.164C629.511 8.50267 630.017 7.97467 630.668 7.58C631.329 7.17467 632.113 6.972 633.02 6.972C633.927 6.972 634.705 7.17467 635.356 7.58C636.017 7.97467 636.524 8.50267 636.876 9.164C637.228 9.82533 637.404 10.5453 637.404 11.324C637.404 12.092 637.228 12.8067 636.876 13.468C636.524 14.1293 636.017 14.6627 635.356 15.068C634.705 15.4627 633.927 15.66 633.02 15.66ZM630.828 11.324C630.828 11.8147 630.924 12.252 631.116 12.636C631.308 13.0093 631.569 13.3027 631.9 13.516C632.231 13.7293 632.604 13.836 633.02 13.836C633.425 13.836 633.793 13.7293 634.124 13.516C634.455 13.292 634.716 12.9933 634.908 12.62C635.111 12.236 635.212 11.7987 635.212 11.308C635.212 10.828 635.111 10.4013 634.908 10.028C634.716 9.644 634.455 9.34533 634.124 9.132C633.793 8.908 633.425 8.796 633.02 8.796C632.604 8.796 632.231 8.908 631.9 9.132C631.569 9.34533 631.308 9.644 631.116 10.028C630.924 10.4013 630.828 10.8333 630.828 11.324ZM651.875 15.5H649.731V10.796C649.731 10.1347 649.614 9.64933 649.379 9.34C649.155 9.02 648.84 8.86 648.435 8.86C648.008 8.86 647.608 9.02533 647.235 9.356C646.862 9.676 646.595 10.0973 646.435 10.62V15.5H644.291V10.796C644.291 10.124 644.174 9.63333 643.939 9.324C643.715 9.01467 643.4 8.86 642.995 8.86C642.579 8.86 642.179 9.02 641.795 9.34C641.422 9.66 641.155 10.0813 640.995 10.604V15.5H638.851V7.116H640.787V8.668C641.096 8.124 641.518 7.708 642.051 7.42C642.595 7.12133 643.214 6.972 643.907 6.972C644.6 6.972 645.139 7.14267 645.523 7.484C645.918 7.82533 646.168 8.24667 646.275 8.748C646.606 8.172 647.038 7.73467 647.571 7.436C648.104 7.12667 648.702 6.972 649.363 6.972C649.886 6.972 650.307 7.068 650.627 7.26C650.958 7.44133 651.214 7.692 651.395 8.012C651.576 8.32133 651.699 8.67333 651.763 9.068C651.838 9.46267 651.875 9.86267 651.875 10.268V15.5Z" fill="#464646"/>
</svg>
